<?xml version="1.0" encoding="UTF-8"?>
<!DOCTYPE svg PUBLIC "-//W3C//DTD SVG 1.1//EN" "http://www.w3.org/Graphics/SVG/1.1/DTD/svg11.dtd">
<!-- Creator: CorelDRAW 2019 (64-Bit) -->
<svg xmlns="http://www.w3.org/2000/svg" xml:space="preserve" width="900px" height="900px" version="1.1" style="shape-rendering:geometricPrecision; text-rendering:geometricPrecision; image-rendering:optimizeQuality; fill-rule:evenodd; clip-rule:evenodd"
viewBox="0 0 900 900"
 xmlns:xlink="http://www.w3.org/1999/xlink"
 xmlns:xodm="http://www.corel.com/coreldraw/odm/2003"
 enable-background="new 0 0 1000 1000">
 <defs>
  <style type="text/css">
   <![CDATA[
    .str0 {stroke:white;stroke-width:50;stroke-miterlimit:2.61313}
    .fil0 {fill:white;fill-rule:nonzero}
   ]]>
  </style>
 </defs>
 <g id="Layer_x0020_1">
  <metadata id="CorelCorpID_0Corel-Layer"/>
  <path class="fil0 str0" d="M257.45 117.87c-2.79,1.23 -6.8,4.18 -8.89,6.45 -2.09,2.26 -45.13,74.4 -95.84,160.14 -91.65,155.09 -92.18,155.96 -92.18,165.54 0,9.59 0.53,10.45 92.18,165.54 50.71,85.74 93.75,157.88 95.84,160.14 8.19,9.24 0.7,8.89 201.44,8.89 200.74,0 193.25,0.35 201.44,-8.89 1.91,-2.26 45.13,-74.41 95.84,-160.14 91.65,-155.09 92.18,-155.95 92.18,-165.54 0,-9.58 -0.53,-10.45 -92.18,-165.54 -50.71,-85.74 -93.75,-157.88 -95.84,-160.14 -8.19,-9.24 -0.53,-8.89 -201.79,-8.89 -151.95,0.18 -188.02,0.53 -192.2,2.44zm464.56 179.31l90.44 152.82 -90.44 152.99 -90.26 152.82 -181.75 0 -181.75 0 -90.26 -152.99 -90.44 -152.82 68.13 -115.53c37.64,-63.43 78.42,-132.44 90.78,-153.35l22.48 -37.81 181.4 0.35 181.4 0.52 90.27 153z"/>
  <path class="fil0 str0" d="M394.93 121.12c-140.65,23.54 -251.21,135.28 -274.15,276.82 -13.12,81.06 7.15,172.53 53.03,239.58 51.86,75.4 135.58,128.43 225.57,141.85 182.07,27.71 352.52,-97.14 379.94,-278.62 19.37,-126.95 -35.76,-254.18 -141.85,-326.9 -67.03,-46.18 -161.2,-66.73 -242.54,-52.73zm123.95 51.55c53.35,13.71 95.06,37.84 133.8,77.47 38.44,38.74 63.18,82.84 76.58,136.18 7.15,28.31 7.15,99.22 0,127.53 -13.42,53.05 -37.25,95.96 -75.1,134.4 -29.79,30.39 -42.91,40.23 -77.77,57.5 -45.3,22.95 -91.79,32.49 -142.44,29.51 -72.71,-4.17 -134.7,-32.48 -186.54,-85.22 -38.44,-38.74 -63.17,-82.84 -76.58,-136.19 -7.14,-28.31 -7.14,-99.22 0,-127.53 13.42,-53.33 38.14,-97.44 76.58,-136.18 43.81,-44.7 92.09,-70.32 152.87,-81.94 29.81,-5.67 89.11,-3.58 118.6,4.47z"/>
  <polygon class="fil0" points="555.6,735.24 344.4,735.24 344.4,634.01 403.4,634.01 403.4,265.99 344.4,265.99 344.4,164.76 555.6,164.76 555.6,265.99 496.6,265.99 496.6,634.01 555.6,634.01 "/>
 </g>
</svg>
